<?xml version="1.0" encoding="utf-8"?>
<svg xmlns="http://www.w3.org/2000/svg" viewBox="354.0999 -167.8922 1082.6024 1186.5895" width="1082.6px" height="1186.59px" preserveAspectRatio="none"><path fill="#666666" d="M 816.1 592.39 C 816.5 593.95 816.697 595.57 816.69 597.25 C 816.463 710.063 816.41 775.063 816.53 792.25 C 816.57 798.617 814.293 803.363 809.7 806.49 C 785.527 822.957 721.863 866.613 618.71 937.46 C 615.83 939.44 612.733 940.753 609.42 941.4 C 607.087 941.86 603.81 941.78 599.59 941.16 C 500.23 926.607 423.497 915.36 369.39 907.42 C 364.47 906.7 358.4 902.33 356.24 897.47 C 355.76 896.39 355.523 894.077 355.53 890.53 C 355.557 766.863 355.38 649.353 355 538 C 354.98 531.213 354.963 524.547 354.95 518 C 354.677 253.56 354.393 79.06 354.1 -5.5 C 354.087 -10.093 355.89 -13.753 359.51 -16.48 C 395.743 -43.78 459.977 -91.95 552.21 -160.99 C 558.95 -166.03 561.75 -168.75 569.43 -167.65 C 644.097 -157 718.76 -146.35 793.42 -135.7 C 795.867 -135.35 797.927 -135.11 799.6 -134.96 C 805.63 -134.42 811.27 -132.75 813.72 -127.2 C 814.527 -125.37 814.943 -122.17 814.97 -117.58 C 815.43 -36.4 815.64 90.05 816.54 206.07 C 816.547 206.53 816.777 206.787 817.23 206.84 L 976.51 227.18 C 976.889 227.228 977.223 226.932 977.22 226.55 C 976.727 179.01 976.127 132.41 975.42 86.75 C 975.407 85.73 975.26 83.48 974.98 80 C 974.51 74.2 978.47 70.09 983.38 66.39 C 998.78 54.783 1064.62 5.327 1180.9 -81.98 C 1182.93 -83.507 1184.49 -84.497 1185.57 -84.95 C 1190.08 -86.84 1194.23 -85.29 1198.97 -84.69 C 1339.09 -66.83 1414.35 -57.263 1424.74 -55.99 C 1430.02 -55.34 1435.12 -53.3 1436.43 -47.72 C 1437.13 -44.76 1436.26 -40.77 1436.26 -37.38 C 1435.73 265.5 1435.45 430.293 1435.42 457 C 1435.15 678.407 1434.98 813.237 1434.91 861.49 C 1434.9 865.177 1433.7 868.473 1431.29 871.38 C 1430.14 872.767 1427.54 874.897 1423.47 877.77 C 1359.88 922.67 1296.29 967.573 1232.7 1012.48 C 1229.89 1014.47 1227.18 1017.48 1223.1 1018.41 C 1221.59 1018.76 1219.38 1018.79 1216.47 1018.5 C 1083.96 1005.22 1009.47 997.87 993.01 996.45 C 989.623 996.157 986.803 995.087 984.55 993.24 C 982.33 991.413 981.227 988.863 981.24 985.59 C 981.247 984.223 981.337 979.22 981.51 970.58 C 981.743 958.94 982.877 855.66 984.91 660.74 C 985.06 646.17 984.47 629.48 984.15 617.42 C 984.144 616.988 983.822 616.624 983.39 616.56 L 816.44 592.02 C 816.226 591.984 816.047 592.18 816.1 592.39 Z M 568.07 -146.39 C 567.982 -146.41 567.892 -146.38 567.82 -146.33 L 392.58 -15.06 C 392.378 -14.906 392.418 -14.591 392.653 -14.493 C 392.681 -14.481 392.71 -14.474 392.74 -14.47 L 614.89 11.86 C 614.975 11.872 615.061 11.85 615.13 11.8 L 780.07 -115.62 C 780.273 -115.77 780.234 -116.09 780 -116.19 C 779.975 -116.2 779.948 -116.21 779.92 -116.21 L 568.07 -146.39 Z M 630.83 26.24 C 630.756 26.298 630.712 26.386 630.71 26.48 L 626.8 353.06 C 626.798 353.299 627.054 353.45 627.262 353.333 C 627.279 353.324 627.295 353.313 627.31 353.3 L 795.36 210.07 C 795.428 210.013 795.468 209.929 795.47 209.84 L 794.32 -99.43 C 794.324 -99.67 794.068 -99.82 793.859 -99.71 C 793.846 -99.7 793.832 -99.69 793.82 -99.68 L 630.83 26.24 Z M 1012.43 70.84 C 1012.06 71.113 1012.11 71.277 1012.56 71.33 L 1223.92 95.7 C 1224.67 95.79 1225.43 95.582 1226.03 95.12 C 1328.06 17.127 1385.36 -26.687 1397.92 -36.32 C 1398.75 -36.953 1398.59 -37.563 1397.42 -38.15 C 1397.25 -38.236 1397.07 -38.294 1396.88 -38.32 C 1296.03 -51.173 1228.49 -59.767 1194.28 -64.1 C 1193.08 -64.253 1191.95 -63.93 1190.88 -63.13 C 1115.27 -6.297 1055.78 38.36 1012.43 70.84 Z M 1413.76 858.94 C 1413.84 858.882 1413.89 858.789 1413.89 858.69 L 1415.23 -22.53 C 1415.23 -22.769 1414.98 -22.922 1414.77 -22.806 C 1414.76 -22.798 1414.74 -22.79 1414.73 -22.78 L 1237.91 112.41 C 1237.84 112.468 1237.79 112.556 1237.79 112.65 L 1232.76 986.16 C 1232.76 986.399 1233.02 986.546 1233.23 986.425 C 1233.23 986.42 1233.24 986.415 1233.25 986.41 L 1413.76 858.94 Z M 1002.07 600.18 C 1005.83 603.91 1006.47 608.16 1006.45 613.83 C 1006.42 621.67 1006.2 644.143 1005.78 681.25 C 1004.95 755.163 1004.15 829.08 1003.36 903 C 1002.96 940.347 1002.74 964.407 1002.69 975.18 C 1002.69 975.684 1003.07 976.109 1003.58 976.16 L 1211.01 996.74 C 1211.44 996.78 1211.65 996.587 1211.66 996.16 L 1216.7 119.04 C 1216.7 118.486 1216.29 118.021 1215.74 117.96 L 997.37 92.78 C 997.15 92.755 996.927 92.84 996.77 93.01 C 996.697 93.097 996.66 93.26 996.66 93.5 C 996.8 108.247 997.113 133.627 997.6 169.64 C 998.313 222.94 999.243 296.22 1000.39 389.48 C 1000.55 402.87 1000.98 414.86 1001.13 427.59 C 1001.16 430.283 1000.92 432.24 1000.4 433.46 C 998.14 438.72 993 440.53 987.75 439.76 C 824.73 415.813 702.813 397.897 622 386.01 C 617.82 385.397 614.24 384.09 611.26 382.09 C 606.65 378.99 605.53 374.78 605.59 369.25 C 606.857 264.07 608.18 151.987 609.56 33 C 609.567 32.607 609.373 32.387 608.98 32.34 L 375.9 4.7 C 375.503 4.658 375.157 4.966 375.16 5.36 L 376.64 886.13 C 376.64 886.75 376.95 887.107 377.57 887.2 L 596.96 919.45 C 597.633 919.55 597.97 919.26 597.97 918.58 C 597.503 791.307 597.143 672.163 596.89 561.15 C 596.88 556.84 596.61 551.55 597.68 547.97 C 599.77 540.91 605.59 539.12 612.34 540.13 C 776.553 564.65 901.407 583.247 986.9 595.92 C 993.84 596.95 998.37 596.49 1002.07 600.18 Z M 977.58 248.81 C 977.581 248.648 977.461 248.51 977.3 248.49 L 808.2 226.91 C 808.111 226.897 808.02 226.922 807.95 226.98 L 643.26 367.35 C 643.073 367.51 643.128 367.813 643.36 367.895 C 643.38 367.902 643.4 367.907 643.42 367.91 L 979.37 417.31 C 979.57 417.342 979.749 417.182 979.74 416.98 L 977.58 248.81 Z M 618.63 562.54 C 618.44 562.509 618.267 562.657 618.27 562.85 L 619.56 910.69 C 619.559 910.929 619.817 911.078 620.024 910.96 C 620.03 910.957 620.035 910.953 620.04 910.95 L 795.52 790.35 C 795.605 790.295 795.657 790.201 795.66 790.1 L 794.92 588.73 C 794.922 588.577 794.811 588.445 794.66 588.42 L 618.63 562.54 Z" data-index="9" style="opacity: 1;" id="object-0" transform="matrix(0.9999999999999999, 0, 0, 0.9999999999999999, 0, 0)"/></svg>