<?xml version="1.0" encoding="UTF-8" standalone="no"?>
<!DOCTYPE svg PUBLIC "-//W3C//DTD SVG 1.1//EN" "http://www.w3.org/Graphics/SVG/1.1/DTD/svg11.dtd">
<svg xmlns="http://www.w3.org/2000/svg" version="1.1" viewBox="0.00 0.00 1773.00 1773.00">
<g stroke-width="1.00" fill="none" stroke-linecap="butt">
<path stroke="#b3b3b3" vector-effect="non-scaling-stroke" d="
  M 780.60 1036.89
  A 0.30 0.30 0.0 0 1 780.94 1036.52
  L 947.89 1061.06
  A 0.89 0.88 3.8 0 1 948.65 1061.92
  C 948.97 1073.98 949.56 1090.67 949.41 1105.24
  Q 946.36 1397.62 946.01 1415.08
  Q 945.75 1428.04 945.74 1430.09
  Q 945.72 1435.00 949.05 1437.74
  Q 952.43 1440.51 957.51 1440.95
  Q 982.20 1443.08 1180.97 1463.00
  Q 1185.33 1463.43 1187.60 1462.91
  C 1191.68 1461.98 1194.39 1458.97 1197.20 1456.98
  Q 1292.58 1389.62 1387.97 1322.27
  Q 1394.07 1317.96 1395.79 1315.88
  Q 1399.40 1311.52 1399.41 1305.99
  Q 1399.51 1233.61 1399.92 901.50
  Q 1399.97 861.44 1400.76 407.12
  C 1400.76 403.73 1401.63 399.74 1400.93 396.78
  C 1399.62 391.20 1394.52 389.16 1389.24 388.51
  Q 1373.65 386.60 1163.47 359.81
  C 1158.73 359.21 1154.58 357.66 1150.07 359.55
  Q 1148.45 360.23 1145.40 362.52
  Q 970.98 493.48 947.88 510.89
  C 942.97 514.59 939.01 518.70 939.48 524.50
  Q 939.90 529.72 939.92 531.25
  Q 940.98 599.74 941.72 671.05
  A 0.63 0.63 0.0 0 1 941.01 671.68
  L 781.73 651.34
  Q 781.05 651.26 781.04 650.57
  C 780.14 534.55 779.93 408.10 779.47 326.92
  Q 779.43 320.04 778.22 317.30
  C 775.77 311.75 770.13 310.08 764.10 309.54
  Q 761.59 309.32 757.92 308.80
  Q 645.93 292.83 533.93 276.85
  C 526.25 275.75 523.45 278.47 516.71 283.51
  Q 378.36 387.07 324.01 428.02
  Q 318.58 432.11 318.60 439.00
  Q 319.04 565.84 319.45 962.50
  Q 319.47 972.32 319.50 982.50
  Q 320.07 1149.53 320.03 1335.03
  Q 320.02 1340.35 320.74 1341.97
  C 322.90 1346.83 328.97 1351.20 333.89 1351.92
  Q 415.05 1363.83 564.09 1385.66
  Q 570.42 1386.59 573.92 1385.90
  Q 578.89 1384.93 583.21 1381.96
  Q 737.94 1275.69 774.20 1250.99
  Q 781.09 1246.30 781.03 1236.75
  Q 780.85 1210.97 781.19 1041.75
  Q 781.20 1039.23 780.60 1036.89"
/>
<path stroke="#b3b3b3" vector-effect="non-scaling-stroke" d="
  M 532.57 298.11
  A 0.33 0.33 0.0 0 0 532.32 298.17
  L 357.08 429.44
  A 0.33 0.33 0.0 0 0 357.24 430.03
  L 579.39 456.36
  A 0.33 0.33 0.0 0 0 579.63 456.30
  L 744.57 328.88
  A 0.33 0.33 0.0 0 0 744.42 328.29
  L 532.57 298.11"
/>
<path stroke="#b3b3b3" vector-effect="non-scaling-stroke" d="
  M 595.33 470.74
  A 0.31 0.31 0.0 0 0 595.21 470.98
  L 591.30 797.56
  A 0.31 0.31 0.0 0 0 591.81 797.80
  L 759.86 654.57
  A 0.31 0.31 0.0 0 0 759.97 654.34
  L 758.82 345.07
  A 0.31 0.31 0.0 0 0 758.32 344.82
  L 595.33 470.74"
/>
<path stroke="#b3b3b3" vector-effect="non-scaling-stroke" d="
  M 976.93 515.34
  Q 976.38 515.75 977.06 515.83
  L 1188.42 540.20
  A 2.91 2.89 -60.2 0 0 1190.53 539.62
  Q 1343.58 422.63 1362.42 408.18
  Q 1363.67 407.23 1361.92 406.35
  A 1.74 1.56 -24.3 0 0 1361.38 406.18
  Q 1210.10 386.90 1158.78 380.40
  Q 1156.98 380.17 1155.38 381.37
  Q 1041.96 466.62 976.93 515.34"
/>
<path stroke="#b3b3b3" vector-effect="non-scaling-stroke" d="
  M 1378.26 1303.44
  A 0.31 0.31 0.0 0 0 1378.39 1303.19
  L 1379.73 421.97
  A 0.31 0.31 0.0 0 0 1379.23 421.72
  L 1202.41 556.91
  A 0.31 0.31 0.0 0 0 1202.29 557.15
  L 1197.26 1430.66
  A 0.31 0.31 0.0 0 0 1197.75 1430.91
  L 1378.26 1303.44"
/>
<path stroke="#b3b3b3" vector-effect="non-scaling-stroke" d="
  M 966.57 1044.68
  C 970.33 1048.41 970.97 1052.66 970.95 1058.33
  Q 970.91 1070.09 970.28 1125.75
  Q 969.04 1236.62 967.86 1347.50
  Q 967.26 1403.52 967.19 1419.68
  A 0.99 0.98 2.9 0 0 968.08 1420.66
  L 1175.51 1441.24
  Q 1176.15 1441.30 1176.16 1440.66
  L 1181.20 563.54
  A 1.09 1.08 -86.7 0 0 1180.24 562.46
  L 961.87 537.28
  A 0.73 0.69 -64.4 0 0 961.27 537.51
  Q 961.16 537.64 961.16 538.00
  Q 961.37 560.12 962.10 614.14
  Q 963.17 694.09 964.89 833.98
  C 965.05 847.37 965.48 859.36 965.63 872.09
  Q 965.68 876.13 964.90 877.96
  C 962.64 883.22 957.50 885.03 952.25 884.26
  Q 707.72 848.34 586.50 830.51
  Q 580.23 829.59 575.76 826.59
  C 571.15 823.49 570.03 819.28 570.09 813.75
  Q 571.99 655.98 574.06 477.50
  Q 574.07 476.91 573.48 476.84
  L 340.40 449.20
  A 0.67 0.66 3.1 0 0 339.66 449.86
  L 341.14 1330.63
  Q 341.14 1331.56 342.07 1331.70
  L 561.46 1363.95
  Q 562.47 1364.10 562.47 1363.08
  Q 561.77 1172.17 561.39 1005.65
  C 561.38 1001.34 561.11 996.05 562.18 992.47
  C 564.27 985.41 570.09 983.62 576.84 984.63
  Q 823.16 1021.41 951.40 1040.42
  C 958.34 1041.45 962.87 1040.99 966.57 1044.68"
/>
<path stroke="#b3b3b3" vector-effect="non-scaling-stroke" d="
  M 942.08 693.31
  A 0.32 0.32 0.0 0 0 941.80 692.99
  L 772.70 671.41
  A 0.32 0.32 0.0 0 0 772.45 671.48
  L 607.76 811.85
  A 0.32 0.32 0.0 0 0 607.92 812.41
  L 943.87 861.81
  A 0.32 0.32 0.0 0 0 944.24 861.48
  L 942.08 693.31"
/>
<path stroke="#b3b3b3" vector-effect="non-scaling-stroke" d="
  M 583.13 1007.04
  A 0.31 0.31 0.0 0 0 582.77 1007.35
  L 584.06 1355.19
  A 0.31 0.31 0.0 0 0 584.54 1355.45
  L 760.02 1234.85
  A 0.31 0.31 0.0 0 0 760.16 1234.60
  L 759.42 1033.23
  A 0.31 0.31 0.0 0 0 759.16 1032.92
  L 583.13 1007.04"
/>
</g>
<path fill="#ffffff" d="
  M 1773.00 0.00
  L 1773.00 1773.00
  L 0.00 1773.00
  L 0.00 0.00
  L 1773.00 0.00
  Z
  M 780.60 1036.89
  A 0.30 0.30 0.0 0 1 780.94 1036.52
  L 947.89 1061.06
  A 0.89 0.88 3.8 0 1 948.65 1061.92
  C 948.97 1073.98 949.56 1090.67 949.41 1105.24
  Q 946.36 1397.62 946.01 1415.08
  Q 945.75 1428.04 945.74 1430.09
  Q 945.72 1435.00 949.05 1437.74
  Q 952.43 1440.51 957.51 1440.95
  Q 982.20 1443.08 1180.97 1463.00
  Q 1185.33 1463.43 1187.60 1462.91
  C 1191.68 1461.98 1194.39 1458.97 1197.20 1456.98
  Q 1292.58 1389.62 1387.97 1322.27
  Q 1394.07 1317.96 1395.79 1315.88
  Q 1399.40 1311.52 1399.41 1305.99
  Q 1399.51 1233.61 1399.92 901.50
  Q 1399.97 861.44 1400.76 407.12
  C 1400.76 403.73 1401.63 399.74 1400.93 396.78
  C 1399.62 391.20 1394.52 389.16 1389.24 388.51
  Q 1373.65 386.60 1163.47 359.81
  C 1158.73 359.21 1154.58 357.66 1150.07 359.55
  Q 1148.45 360.23 1145.40 362.52
  Q 970.98 493.48 947.88 510.89
  C 942.97 514.59 939.01 518.70 939.48 524.50
  Q 939.90 529.72 939.92 531.25
  Q 940.98 599.74 941.72 671.05
  A 0.63 0.63 0.0 0 1 941.01 671.68
  L 781.73 651.34
  Q 781.05 651.26 781.04 650.57
  C 780.14 534.55 779.93 408.10 779.47 326.92
  Q 779.43 320.04 778.22 317.30
  C 775.77 311.75 770.13 310.08 764.10 309.54
  Q 761.59 309.32 757.92 308.80
  Q 645.93 292.83 533.93 276.85
  C 526.25 275.75 523.45 278.47 516.71 283.51
  Q 378.36 387.07 324.01 428.02
  Q 318.58 432.11 318.60 439.00
  Q 319.04 565.84 319.45 962.50
  Q 319.47 972.32 319.50 982.50
  Q 320.07 1149.53 320.03 1335.03
  Q 320.02 1340.35 320.74 1341.97
  C 322.90 1346.83 328.97 1351.20 333.89 1351.92
  Q 415.05 1363.83 564.09 1385.66
  Q 570.42 1386.59 573.92 1385.90
  Q 578.89 1384.93 583.21 1381.96
  Q 737.94 1275.69 774.20 1250.99
  Q 781.09 1246.30 781.03 1236.75
  Q 780.85 1210.97 781.19 1041.75
  Q 781.20 1039.23 780.60 1036.89
  Z"
/>
<path fill="#666666" d="
  M 780.60 1036.89
  Q 781.20 1039.23 781.19 1041.75
  Q 780.85 1210.97 781.03 1236.75
  Q 781.09 1246.30 774.20 1250.99
  Q 737.94 1275.69 583.21 1381.96
  Q 578.89 1384.93 573.92 1385.90
  Q 570.42 1386.59 564.09 1385.66
  Q 415.05 1363.83 333.89 1351.92
  C 328.97 1351.20 322.90 1346.83 320.74 1341.97
  Q 320.02 1340.35 320.03 1335.03
  Q 320.07 1149.53 319.50 982.50
  Q 319.47 972.32 319.45 962.50
  Q 319.04 565.84 318.60 439.00
  Q 318.58 432.11 324.01 428.02
  Q 378.36 387.07 516.71 283.51
  C 523.45 278.47 526.25 275.75 533.93 276.85
  Q 645.93 292.83 757.92 308.80
  Q 761.59 309.32 764.10 309.54
  C 770.13 310.08 775.77 311.75 778.22 317.30
  Q 779.43 320.04 779.47 326.92
  C 779.93 408.10 780.14 534.55 781.04 650.57
  Q 781.05 651.26 781.73 651.34
  L 941.01 671.68
  A 0.63 0.63 0.0 0 0 941.72 671.05
  Q 940.98 599.74 939.92 531.25
  Q 939.90 529.72 939.48 524.50
  C 939.01 518.70 942.97 514.59 947.88 510.89
  Q 970.98 493.48 1145.40 362.52
  Q 1148.45 360.23 1150.07 359.55
  C 1154.58 357.66 1158.73 359.21 1163.47 359.81
  Q 1373.65 386.60 1389.24 388.51
  C 1394.52 389.16 1399.62 391.20 1400.93 396.78
  C 1401.63 399.74 1400.76 403.73 1400.76 407.12
  Q 1399.97 861.44 1399.92 901.50
  Q 1399.51 1233.61 1399.41 1305.99
  Q 1399.40 1311.52 1395.79 1315.88
  Q 1394.07 1317.96 1387.97 1322.27
  Q 1292.58 1389.62 1197.20 1456.98
  C 1194.39 1458.97 1191.68 1461.98 1187.60 1462.91
  Q 1185.33 1463.43 1180.97 1463.00
  Q 982.20 1443.08 957.51 1440.95
  Q 952.43 1440.51 949.05 1437.74
  Q 945.72 1435.00 945.74 1430.09
  Q 945.75 1428.04 946.01 1415.08
  Q 946.36 1397.62 949.41 1105.24
  C 949.56 1090.67 948.97 1073.98 948.65 1061.92
  A 0.89 0.88 3.8 0 0 947.89 1061.06
  L 780.94 1036.52
  A 0.30 0.30 0.0 0 0 780.60 1036.89
  Z
  M 532.57 298.11
  A 0.33 0.33 0.0 0 0 532.32 298.17
  L 357.08 429.44
  A 0.33 0.33 0.0 0 0 357.24 430.03
  L 579.39 456.36
  A 0.33 0.33 0.0 0 0 579.63 456.30
  L 744.57 328.88
  A 0.33 0.33 0.0 0 0 744.42 328.29
  L 532.57 298.11
  Z
  M 595.33 470.74
  A 0.31 0.31 0.0 0 0 595.21 470.98
  L 591.30 797.56
  A 0.31 0.31 0.0 0 0 591.81 797.80
  L 759.86 654.57
  A 0.31 0.31 0.0 0 0 759.97 654.34
  L 758.82 345.07
  A 0.31 0.31 0.0 0 0 758.32 344.82
  L 595.33 470.74
  Z
  M 976.93 515.34
  Q 976.38 515.75 977.06 515.83
  L 1188.42 540.20
  A 2.91 2.89 -60.2 0 0 1190.53 539.62
  Q 1343.58 422.63 1362.42 408.18
  Q 1363.67 407.23 1361.92 406.35
  A 1.74 1.56 -24.3 0 0 1361.38 406.18
  Q 1210.10 386.90 1158.78 380.40
  Q 1156.98 380.17 1155.38 381.37
  Q 1041.96 466.62 976.93 515.34
  Z
  M 1378.26 1303.44
  A 0.31 0.31 0.0 0 0 1378.39 1303.19
  L 1379.73 421.97
  A 0.31 0.31 0.0 0 0 1379.23 421.72
  L 1202.41 556.91
  A 0.31 0.31 0.0 0 0 1202.29 557.15
  L 1197.26 1430.66
  A 0.31 0.31 0.0 0 0 1197.75 1430.91
  L 1378.26 1303.44
  Z
  M 966.57 1044.68
  C 970.33 1048.41 970.97 1052.66 970.95 1058.33
  Q 970.91 1070.09 970.28 1125.75
  Q 969.04 1236.62 967.86 1347.50
  Q 967.26 1403.52 967.19 1419.68
  A 0.99 0.98 2.9 0 0 968.08 1420.66
  L 1175.51 1441.24
  Q 1176.15 1441.30 1176.16 1440.66
  L 1181.20 563.54
  A 1.09 1.08 -86.7 0 0 1180.24 562.46
  L 961.87 537.28
  A 0.73 0.69 -64.4 0 0 961.27 537.51
  Q 961.16 537.64 961.16 538.00
  Q 961.37 560.12 962.10 614.14
  Q 963.17 694.09 964.89 833.98
  C 965.05 847.37 965.48 859.36 965.63 872.09
  Q 965.68 876.13 964.90 877.96
  C 962.64 883.22 957.50 885.03 952.25 884.26
  Q 707.72 848.34 586.50 830.51
  Q 580.23 829.59 575.76 826.59
  C 571.15 823.49 570.03 819.28 570.09 813.75
  Q 571.99 655.98 574.06 477.50
  Q 574.07 476.91 573.48 476.84
  L 340.40 449.20
  A 0.67 0.66 3.1 0 0 339.66 449.86
  L 341.14 1330.63
  Q 341.14 1331.56 342.07 1331.70
  L 561.46 1363.95
  Q 562.47 1364.10 562.47 1363.08
  Q 561.77 1172.17 561.39 1005.65
  C 561.38 1001.34 561.11 996.05 562.18 992.47
  C 564.27 985.41 570.09 983.62 576.84 984.63
  Q 823.16 1021.41 951.40 1040.42
  C 958.34 1041.45 962.87 1040.99 966.57 1044.68
  Z
  M 942.08 693.31
  A 0.32 0.32 0.0 0 0 941.80 692.99
  L 772.70 671.41
  A 0.32 0.32 0.0 0 0 772.45 671.48
  L 607.76 811.85
  A 0.32 0.32 0.0 0 0 607.92 812.41
  L 943.87 861.81
  A 0.32 0.32 0.0 0 0 944.24 861.48
  L 942.08 693.31
  Z
  M 583.13 1007.04
  A 0.31 0.31 0.0 0 0 582.77 1007.35
  L 584.06 1355.19
  A 0.31 0.31 0.0 0 0 584.54 1355.45
  L 760.02 1234.85
  A 0.31 0.31 0.0 0 0 760.16 1234.60
  L 759.42 1033.23
  A 0.31 0.31 0.0 0 0 759.16 1032.92
  L 583.13 1007.04
  Z"
/>
<path fill="#ffffff" d="
  M 532.57 298.11
  L 744.42 328.29
  A 0.33 0.33 0.0 0 1 744.57 328.88
  L 579.63 456.30
  A 0.33 0.33 0.0 0 1 579.39 456.36
  L 357.24 430.03
  A 0.33 0.33 0.0 0 1 357.08 429.44
  L 532.32 298.17
  A 0.33 0.33 0.0 0 1 532.57 298.11
  Z"
/>
<path fill="#ffffff" d="
  M 595.33 470.74
  L 758.32 344.82
  A 0.31 0.31 0.0 0 1 758.82 345.07
  L 759.97 654.34
  A 0.31 0.31 0.0 0 1 759.86 654.57
  L 591.81 797.80
  A 0.31 0.31 0.0 0 1 591.30 797.56
  L 595.21 470.98
  A 0.31 0.31 0.0 0 1 595.33 470.74
  Z"
/>
<path fill="#ffffff" d="
  M 976.93 515.34
  Q 1041.96 466.62 1155.38 381.37
  Q 1156.98 380.17 1158.78 380.40
  Q 1210.10 386.90 1361.38 406.18
  A 1.74 1.56 -24.3 0 1 1361.92 406.35
  Q 1363.67 407.23 1362.42 408.18
  Q 1343.58 422.63 1190.53 539.62
  A 2.91 2.89 -60.2 0 1 1188.42 540.20
  L 977.06 515.83
  Q 976.38 515.75 976.93 515.34
  Z"
/>
<path fill="#ffffff" d="
  M 1378.26 1303.44
  L 1197.75 1430.91
  A 0.31 0.31 0.0 0 1 1197.26 1430.66
  L 1202.29 557.15
  A 0.31 0.31 0.0 0 1 1202.41 556.91
  L 1379.23 421.72
  A 0.31 0.31 0.0 0 1 1379.73 421.97
  L 1378.39 1303.19
  A 0.31 0.31 0.0 0 1 1378.26 1303.44
  Z"
/>
<path fill="#ffffff" d="
  M 966.57 1044.68
  C 962.87 1040.99 958.34 1041.45 951.40 1040.42
  Q 823.16 1021.41 576.84 984.63
  C 570.09 983.62 564.27 985.41 562.18 992.47
  C 561.11 996.05 561.38 1001.34 561.39 1005.65
  Q 561.77 1172.17 562.47 1363.08
  Q 562.47 1364.10 561.46 1363.95
  L 342.07 1331.70
  Q 341.14 1331.56 341.14 1330.63
  L 339.66 449.86
  A 0.67 0.66 3.1 0 1 340.40 449.20
  L 573.48 476.84
  Q 574.07 476.91 574.06 477.50
  Q 571.99 655.98 570.09 813.75
  C 570.03 819.28 571.15 823.49 575.76 826.59
  Q 580.23 829.59 586.50 830.51
  Q 707.72 848.34 952.25 884.26
  C 957.50 885.03 962.64 883.22 964.90 877.96
  Q 965.68 876.13 965.63 872.09
  C 965.48 859.36 965.05 847.37 964.89 833.98
  Q 963.17 694.09 962.10 614.14
  Q 961.37 560.12 961.16 538.00
  Q 961.16 537.64 961.27 537.51
  A 0.73 0.69 -64.4 0 1 961.87 537.28
  L 1180.24 562.46
  A 1.09 1.08 -86.7 0 1 1181.20 563.54
  L 1176.16 1440.66
  Q 1176.15 1441.30 1175.51 1441.24
  L 968.08 1420.66
  A 0.99 0.98 2.9 0 1 967.19 1419.68
  Q 967.26 1403.52 967.86 1347.50
  Q 969.04 1236.62 970.28 1125.75
  Q 970.91 1070.09 970.95 1058.33
  C 970.97 1052.66 970.33 1048.41 966.57 1044.68
  Z"
/>
<path fill="#ffffff" d="
  M 942.08 693.31
  L 944.24 861.48
  A 0.32 0.32 0.0 0 1 943.87 861.81
  L 607.92 812.41
  A 0.32 0.32 0.0 0 1 607.76 811.85
  L 772.45 671.48
  A 0.32 0.32 0.0 0 1 772.70 671.41
  L 941.80 692.99
  A 0.32 0.32 0.0 0 1 942.08 693.31
  Z"
/>
<path fill="#ffffff" d="
  M 583.13 1007.04
  L 759.16 1032.92
  A 0.31 0.31 0.0 0 1 759.42 1033.23
  L 760.16 1234.60
  A 0.31 0.31 0.0 0 1 760.02 1234.85
  L 584.54 1355.45
  A 0.31 0.31 0.0 0 1 584.06 1355.19
  L 582.77 1007.35
  A 0.31 0.31 0.0 0 1 583.13 1007.04
  Z"
/>
</svg>
