<svg xmlns="http://www.w3.org/2000/svg" width="400" height="400" stroke="#666" stroke-width="5" xmlns:v="https://vecta.io/nano"><path fill="#fff" opacity="NaN" d="M65.84 47.559h69v60h-69v-60z" transform="rotate(45 100.339 77.558)"/><g fill="none"><path d="M53.795 74.464V313.51"/><path opacity="NaN" d="M103.506 123.134v84.939"/><path d="M53.368 311.713l51.899 49.299m41.317-280.371v91.852"/><path transform="rotate(10 201.773 179.803)" d="M144.813 179.93l113.924-.253"/><path transform="rotate(10 181.002 219.39)" opacity="NaN" d="M102.024 219.271l157.956.238"/></g><path fill="#fff" opacity="NaN" d="M269.071 56.303h69v60h-69v-60z" transform="rotate(45 303.57 86.302)"/><g fill="none"><path d="M306.773 132.077v238.986"/><path transform="rotate(0.415 283.155 345.229)" d="M259.521 321.037l47.267 48.384"/><path d="M256.806 83.249v147.509m3.369 39.119v52.677"/><path transform="rotate(315 127.024 339.743)" d="M96.925 339.743h60.198"/><path d="M147.414 252.443v67.51M350.313 89.54v237.714"/><path transform="rotate(315 328.945 347.521)" d="M297.784 347.521h62.321"/><path transform="rotate(10.4 185.065 257.462)" opacity="NaN" d="M106.569 257.527l156.992-.13"/><path d="M106.036 240.699v121.982"/></g></svg>