<svg xmlns="http://www.w3.org/2000/svg" width="400" height="400" stroke="#666" stroke-width="8" xmlns:v="https://vecta.io/nano"><path fill="#fff" opacity="NaN" d="M65.84 47.559h69v60h-69v-60z" transform="rotate(45 100.339 77.558)"/><g fill="none"><path d="M52.764 74.464V313.51"/><path opacity="NaN" d="M103.506 123.134v84.424"/><path d="M51.822 310.759l52.93 50.253m42.863-280.371v93.398"/><path transform="rotate(10 201.054 179.677)" d="M143.361 179.804l115.387-.253"/><path transform="rotate(10 179.839 217.821)" opacity="NaN" d="M98.846 217.702l161.986.238"/></g><path fill="#fff" opacity="NaN" d="M269.071 56.303h69v60h-69v-60z" transform="rotate(45 303.57 86.302)"/><g fill="none"><path d="M306.773 132.077v240.017"/><path transform="rotate(0.415 282.388 344.71)" d="M259.018 320.512l46.74 48.395"/><path d="M256.29 83.249v145.447m3.885 41.181v53.192"/><path transform="rotate(315 128.313 340.001)" d="M98.214 340.001h60.198"/><path d="M148.445 255.021V321.5M350.828 89.54v238.229"/><path transform="rotate(315 329.976 347.006)" d="M298.815 347.006h62.321"/><path transform="rotate(10.438 183.061 258.83)" opacity="NaN" d="M101.362 258.895l163.399-.13"/><path d="M106.036 247.4v116.827"/></g></svg>