<svg xmlns="http://www.w3.org/2000/svg" xmlns:xlink="http://www.w3.org/1999/xlink" width="2000" zoomAndPan="magnify" viewBox="0 0 1500 299.999988" height="400" preserveAspectRatio="xMidYMid meet" version="1.0"><defs><g/><clipPath id="0144b8b386"><path d="M 1 16.746094 L 123 16.746094 L 123 129 L 1 129 Z M 1 16.746094 " clip-rule="nonzero"/></clipPath><clipPath id="29305bcd87"><path d="M 0 193 L 95 193 L 95 282.996094 L 0 282.996094 Z M 0 193 " clip-rule="nonzero"/></clipPath><clipPath id="8840e022e7"><path d="M 136 16.746094 L 258 16.746094 L 258 135 L 136 135 Z M 136 16.746094 " clip-rule="nonzero"/></clipPath><clipPath id="c9f00870dc"><path d="M 137 199 L 229 199 L 229 282.996094 L 137 282.996094 Z M 137 199 " clip-rule="nonzero"/></clipPath><clipPath id="5ef50e531d"><path d="M 35 198 L 125 198 L 125 282.996094 L 35 282.996094 Z M 35 198 " clip-rule="nonzero"/></clipPath><clipPath id="4e98732a34"><path d="M 169 202 L 260 202 L 260 282.996094 L 169 282.996094 Z M 169 202 " clip-rule="nonzero"/></clipPath></defs><g fill="#666666" fill-opacity="1"><g transform="translate(274.572223, 220.867552)"><g><path d="M 32.234375 -119.9375 L 32.234375 -11.65625 L 89.984375 -11.65625 L 89.984375 0 L 18.125 0 L 18.125 -119.9375 Z M 32.234375 -119.9375 "/></g></g></g><g fill="#666666" fill-opacity="1"><g transform="translate(369.639808, 220.867552)"><g><path d="M 37.328125 1.71875 C 28.410156 1.71875 21.445312 -0.601562 16.4375 -5.25 C 11.4375 -9.894531 8.9375 -16.539062 8.9375 -25.1875 C 8.9375 -30.539062 10.046875 -35.0625 12.265625 -38.75 C 14.484375 -42.445312 17.914062 -45.457031 22.5625 -47.78125 C 27.207031 -50.101562 33.273438 -51.894531 40.765625 -53.15625 C 47.328125 -54.25 52.316406 -55.476562 55.734375 -56.84375 C 59.160156 -58.21875 61.457031 -59.75 62.625 -61.4375 C 63.800781 -63.132812 64.390625 -65.269531 64.390625 -67.84375 C 64.390625 -71.945312 62.984375 -75.09375 60.171875 -77.28125 C 57.359375 -79.46875 52.832031 -80.5625 46.59375 -80.5625 C 40.738281 -80.5625 35.71875 -79.425781 31.53125 -77.15625 C 27.351562 -74.882812 23.515625 -71.503906 20.015625 -67.015625 L 18.375 -67.015625 L 11.8125 -76.296875 C 15.644531 -81.160156 20.515625 -85.023438 26.421875 -87.890625 C 32.328125 -90.765625 39.050781 -92.203125 46.59375 -92.203125 C 57.257812 -92.203125 65.117188 -89.863281 70.171875 -85.1875 C 75.234375 -80.507812 77.765625 -74.046875 77.765625 -65.796875 L 77.765625 -17.796875 C 77.765625 -12.765625 79.898438 -10.25 84.171875 -10.25 C 85.585938 -10.25 86.953125 -10.5 88.265625 -11 L 89.421875 -10.671875 L 90.96875 -1.390625 C 89.988281 -0.734375 88.691406 -0.226562 87.078125 0.125 C 85.460938 0.476562 83.804688 0.65625 82.109375 0.65625 C 77.140625 0.65625 73.378906 -0.4375 70.828125 -2.625 C 68.285156 -4.8125 66.660156 -8.039062 65.953125 -12.3125 L 64.234375 -12.46875 C 61.660156 -7.707031 58.1875 -4.148438 53.8125 -1.796875 C 49.4375 0.546875 43.941406 1.71875 37.328125 1.71875 Z M 40.28125 -8.9375 C 45.3125 -8.9375 49.671875 -10.097656 53.359375 -12.421875 C 57.054688 -14.753906 59.890625 -18.023438 61.859375 -22.234375 C 63.828125 -26.441406 64.8125 -31.304688 64.8125 -36.828125 L 64.8125 -48.3125 L 63.25 -48.640625 C 61.226562 -47.222656 58.765625 -46.035156 55.859375 -45.078125 C 52.960938 -44.117188 48.914062 -43.257812 43.71875 -42.5 C 38.46875 -41.78125 34.296875 -40.679688 31.203125 -39.203125 C 28.117188 -37.734375 25.921875 -35.863281 24.609375 -33.59375 C 23.296875 -31.320312 22.640625 -28.519531 22.640625 -25.1875 C 22.640625 -19.882812 24.195312 -15.847656 27.3125 -13.078125 C 30.4375 -10.316406 34.757812 -8.9375 40.28125 -8.9375 Z M 40.28125 -8.9375 "/></g></g></g><g fill="#666666" fill-opacity="1"><g transform="translate(463.230933, 220.867552)"><g><path d="M 15.75 0 L 15.75 -90.484375 L 28.46875 -90.484375 L 28.46875 -76.296875 L 30.1875 -75.875 C 34.394531 -86.15625 42.328125 -91.296875 53.984375 -91.296875 C 60.160156 -91.296875 64.78125 -90.175781 67.84375 -87.9375 L 64.390625 -76.625 L 62.75 -76.296875 C 59.363281 -77.984375 55.644531 -78.828125 51.59375 -78.828125 C 44.375 -78.828125 38.820312 -76.117188 34.9375 -70.703125 C 31.0625 -65.296875 29.125 -56.519531 29.125 -44.375 L 29.125 0 Z M 15.75 0 "/></g></g></g><g fill="#666666" fill-opacity="1"><g transform="translate(533.116666, 220.867552)"><g><path d="M 37.328125 1.71875 C 28.410156 1.71875 21.445312 -0.601562 16.4375 -5.25 C 11.4375 -9.894531 8.9375 -16.539062 8.9375 -25.1875 C 8.9375 -30.539062 10.046875 -35.0625 12.265625 -38.75 C 14.484375 -42.445312 17.914062 -45.457031 22.5625 -47.78125 C 27.207031 -50.101562 33.273438 -51.894531 40.765625 -53.15625 C 47.328125 -54.25 52.316406 -55.476562 55.734375 -56.84375 C 59.160156 -58.21875 61.457031 -59.75 62.625 -61.4375 C 63.800781 -63.132812 64.390625 -65.269531 64.390625 -67.84375 C 64.390625 -71.945312 62.984375 -75.09375 60.171875 -77.28125 C 57.359375 -79.46875 52.832031 -80.5625 46.59375 -80.5625 C 40.738281 -80.5625 35.71875 -79.425781 31.53125 -77.15625 C 27.351562 -74.882812 23.515625 -71.503906 20.015625 -67.015625 L 18.375 -67.015625 L 11.8125 -76.296875 C 15.644531 -81.160156 20.515625 -85.023438 26.421875 -87.890625 C 32.328125 -90.765625 39.050781 -92.203125 46.59375 -92.203125 C 57.257812 -92.203125 65.117188 -89.863281 70.171875 -85.1875 C 75.234375 -80.507812 77.765625 -74.046875 77.765625 -65.796875 L 77.765625 -17.796875 C 77.765625 -12.765625 79.898438 -10.25 84.171875 -10.25 C 85.585938 -10.25 86.953125 -10.5 88.265625 -11 L 89.421875 -10.671875 L 90.96875 -1.390625 C 89.988281 -0.734375 88.691406 -0.226562 87.078125 0.125 C 85.460938 0.476562 83.804688 0.65625 82.109375 0.65625 C 77.140625 0.65625 73.378906 -0.4375 70.828125 -2.625 C 68.285156 -4.8125 66.660156 -8.039062 65.953125 -12.3125 L 64.234375 -12.46875 C 61.660156 -7.707031 58.1875 -4.148438 53.8125 -1.796875 C 49.4375 0.546875 43.941406 1.71875 37.328125 1.71875 Z M 40.28125 -8.9375 C 45.3125 -8.9375 49.671875 -10.097656 53.359375 -12.421875 C 57.054688 -14.753906 59.890625 -18.023438 61.859375 -22.234375 C 63.828125 -26.441406 64.8125 -31.304688 64.8125 -36.828125 L 64.8125 -48.3125 L 63.25 -48.640625 C 61.226562 -47.222656 58.765625 -46.035156 55.859375 -45.078125 C 52.960938 -44.117188 48.914062 -43.257812 43.71875 -42.5 C 38.46875 -41.78125 34.296875 -40.679688 31.203125 -39.203125 C 28.117188 -37.734375 25.921875 -35.863281 24.609375 -33.59375 C 23.296875 -31.320312 22.640625 -28.519531 22.640625 -25.1875 C 22.640625 -19.882812 24.195312 -15.847656 27.3125 -13.078125 C 30.4375 -10.316406 34.757812 -8.9375 40.28125 -8.9375 Z M 40.28125 -8.9375 "/></g></g></g><g fill="#666666" fill-opacity="1"><g transform="translate(626.707791, 220.867552)"><g><path d="M 57.265625 0 L 38.890625 0 L 4.4375 -90.484375 L 18.875 -90.484375 L 47.328125 -15.265625 L 49.21875 -15.265625 L 77.4375 -90.484375 L 91.546875 -90.484375 Z M 57.265625 0 "/></g></g></g><g fill="#666666" fill-opacity="1"><g transform="translate(722.595653, 220.867552)"><g><path d="M 86.21875 -42.171875 L 24.03125 -42.171875 C 24.414062 -31.171875 27.054688 -23.097656 31.953125 -17.953125 C 36.847656 -12.816406 43.5625 -10.25 52.09375 -10.25 C 58.539062 -10.25 63.734375 -11.394531 67.671875 -13.6875 C 71.609375 -15.988281 74.703125 -19.601562 76.953125 -24.53125 L 78.671875 -24.53125 L 87.359375 -19.359375 C 84.734375 -12.796875 80.535156 -7.640625 74.765625 -3.890625 C 69.003906 -0.148438 61.445312 1.71875 52.09375 1.71875 C 43.34375 1.71875 35.820312 0 29.53125 -3.4375 C 23.238281 -6.882812 18.394531 -12.109375 15 -19.109375 C 11.613281 -26.109375 9.921875 -34.804688 9.921875 -45.203125 C 9.921875 -55.484375 11.710938 -64.148438 15.296875 -71.203125 C 18.878906 -78.253906 23.773438 -83.515625 29.984375 -86.984375 C 36.191406 -90.460938 43.285156 -92.203125 51.265625 -92.203125 C 62.859375 -92.203125 71.910156 -88.929688 78.421875 -82.390625 C 84.929688 -75.859375 88.210938 -66.171875 88.265625 -53.328125 C 88.265625 -48.296875 88.15625 -44.90625 87.9375 -43.15625 Z M 75.0625 -53.328125 C 74.84375 -62.953125 72.707031 -69.953125 68.65625 -74.328125 C 64.613281 -78.703125 58.816406 -80.890625 51.265625 -80.890625 C 43.335938 -80.890625 37.117188 -78.6875 32.609375 -74.28125 C 28.097656 -69.875 25.347656 -62.890625 24.359375 -53.328125 Z M 75.0625 -53.328125 "/></g></g></g><g fill="#666666" fill-opacity="1"><g transform="translate(819.057666, 220.867552)"><g><path d="M 36.015625 1.71875 C 29.617188 1.71875 24.585938 -0.0976562 20.921875 -3.734375 C 17.253906 -7.367188 15.421875 -12.796875 15.421875 -20.015625 L 15.421875 -126.828125 L 28.796875 -126.828125 L 28.796875 -20.921875 C 28.796875 -17.148438 29.519531 -14.425781 30.96875 -12.75 C 32.414062 -11.082031 34.671875 -10.25 37.734375 -10.25 C 39.597656 -10.25 41.484375 -10.550781 43.390625 -11.15625 L 44.546875 -10.828125 L 46.109375 -0.328125 C 45.117188 0.328125 43.707031 0.832031 41.875 1.1875 C 40.039062 1.539062 38.085938 1.71875 36.015625 1.71875 Z M 36.015625 1.71875 "/></g></g></g><g fill="#666666" fill-opacity="1"><g transform="translate(868.272979, 220.867552)"><g/></g></g><g fill="#666666" fill-opacity="1"><g transform="translate(909.449779, 220.867552)"><g><path d="M 94.578125 -71.28125 L 94.578125 -119.9375 L 108.609375 -119.9375 L 108.609375 0 L 94.578125 0 L 94.578125 -59.3125 L 32.234375 -59.3125 L 32.234375 0 L 18.125 0 L 18.125 -119.9375 L 32.234375 -119.9375 L 32.234375 -71.28125 Z M 94.578125 -71.28125 "/></g></g></g><g fill="#666666" fill-opacity="1"><g transform="translate(1036.261246, 220.867552)"><g><path d="M 18.125 38.390625 C 15.0625 38.390625 12.203125 38.128906 9.546875 37.609375 C 6.898438 37.085938 4.617188 36.363281 2.703125 35.4375 L 5.171875 24.859375 L 6.640625 24.359375 C 7.953125 25.015625 9.59375 25.578125 11.5625 26.046875 C 13.53125 26.515625 15.554688 26.75 17.640625 26.75 C 21.304688 26.75 24.34375 26.253906 26.75 25.265625 C 29.15625 24.285156 31.21875 22.660156 32.9375 20.390625 C 34.65625 18.117188 36.253906 14.988281 37.734375 11 L 40.9375 2.140625 L 4.59375 -90.484375 L 19.03125 -90.484375 L 47.5 -16.65625 L 49.0625 -16.65625 L 76.625 -90.484375 L 90.3125 -90.484375 L 49.875 14.1875 C 47.582031 19.988281 45.015625 24.648438 42.171875 28.171875 C 39.328125 31.703125 35.960938 34.285156 32.078125 35.921875 C 28.191406 37.566406 23.539062 38.390625 18.125 38.390625 Z M 18.125 38.390625 "/></g></g></g><g fill="#666666" fill-opacity="1"><g transform="translate(1131.656899, 220.867552)"><g><path d="M 15.75 36.671875 L 15.75 -90.484375 L 29.125 -90.484375 L 29.125 -76.953125 L 30.84375 -76.625 C 37.570312 -87.007812 47.441406 -92.203125 60.453125 -92.203125 C 68.003906 -92.203125 74.59375 -90.476562 80.21875 -87.03125 C 85.851562 -83.59375 90.226562 -78.359375 93.34375 -71.328125 C 96.46875 -64.296875 98.03125 -55.585938 98.03125 -45.203125 C 98.03125 -34.867188 96.390625 -26.203125 93.109375 -19.203125 C 89.828125 -12.203125 85.285156 -6.960938 79.484375 -3.484375 C 73.691406 -0.015625 67.019531 1.71875 59.46875 1.71875 C 53.34375 1.71875 47.898438 0.65625 43.140625 -1.46875 C 38.390625 -3.601562 34.289062 -7.109375 30.84375 -11.984375 L 29.125 -11.65625 L 29.125 36.671875 Z M 56.515625 -10.25 C 74.835938 -10.25 84 -21.898438 84 -45.203125 C 84 -68.554688 74.835938 -80.234375 56.515625 -80.234375 C 51.160156 -80.234375 46.429688 -79 42.328125 -76.53125 C 38.222656 -74.070312 34.992188 -70.226562 32.640625 -65 C 30.296875 -59.78125 29.125 -53.179688 29.125 -45.203125 C 29.125 -37.273438 30.296875 -30.695312 32.640625 -25.46875 C 34.992188 -20.25 38.222656 -16.40625 42.328125 -13.9375 C 46.429688 -11.476562 51.160156 -10.25 56.515625 -10.25 Z M 56.515625 -10.25 "/></g></g></g><g fill="#666666" fill-opacity="1"><g transform="translate(1239.602508, 220.867552)"><g><path d="M 86.21875 -42.171875 L 24.03125 -42.171875 C 24.414062 -31.171875 27.054688 -23.097656 31.953125 -17.953125 C 36.847656 -12.816406 43.5625 -10.25 52.09375 -10.25 C 58.539062 -10.25 63.734375 -11.394531 67.671875 -13.6875 C 71.609375 -15.988281 74.703125 -19.601562 76.953125 -24.53125 L 78.671875 -24.53125 L 87.359375 -19.359375 C 84.734375 -12.796875 80.535156 -7.640625 74.765625 -3.890625 C 69.003906 -0.148438 61.445312 1.71875 52.09375 1.71875 C 43.34375 1.71875 35.820312 0 29.53125 -3.4375 C 23.238281 -6.882812 18.394531 -12.109375 15 -19.109375 C 11.613281 -26.109375 9.921875 -34.804688 9.921875 -45.203125 C 9.921875 -55.484375 11.710938 -64.148438 15.296875 -71.203125 C 18.878906 -78.253906 23.773438 -83.515625 29.984375 -86.984375 C 36.191406 -90.460938 43.285156 -92.203125 51.265625 -92.203125 C 62.859375 -92.203125 71.910156 -88.929688 78.421875 -82.390625 C 84.929688 -75.859375 88.210938 -66.171875 88.265625 -53.328125 C 88.265625 -48.296875 88.15625 -44.90625 87.9375 -43.15625 Z M 75.0625 -53.328125 C 74.84375 -62.953125 72.707031 -69.953125 68.65625 -74.328125 C 64.613281 -78.703125 58.816406 -80.890625 51.265625 -80.890625 C 43.335938 -80.890625 37.117188 -78.6875 32.609375 -74.28125 C 28.097656 -69.875 25.347656 -62.890625 24.359375 -53.328125 Z M 75.0625 -53.328125 "/></g></g></g><g fill="#666666" fill-opacity="1"><g transform="translate(1336.064567, 220.867552)"><g><path d="M 15.75 0 L 15.75 -90.484375 L 28.46875 -90.484375 L 28.46875 -76.296875 L 30.1875 -75.875 C 34.394531 -86.15625 42.328125 -91.296875 53.984375 -91.296875 C 60.160156 -91.296875 64.78125 -90.175781 67.84375 -87.9375 L 64.390625 -76.625 L 62.75 -76.296875 C 59.363281 -77.984375 55.644531 -78.828125 51.59375 -78.828125 C 44.375 -78.828125 38.820312 -76.117188 34.9375 -70.703125 C 31.0625 -65.296875 29.125 -56.519531 29.125 -44.375 L 29.125 0 Z M 15.75 0 "/></g></g></g><g fill="#666666" fill-opacity="1"><g transform="translate(1405.950334, 220.867552)"><g><path d="M 20.1875 0 L 20.1875 -79.578125 L 4.4375 -79.578125 L 4.4375 -90.5625 L 20.1875 -90.5625 C 19.195312 -94.5 18.703125 -98.242188 18.703125 -101.796875 C 18.703125 -107.648438 19.945312 -112.585938 22.4375 -116.609375 C 24.925781 -120.628906 28.382812 -123.625 32.8125 -125.59375 C 37.238281 -127.5625 42.351562 -128.546875 48.15625 -128.546875 C 57.175781 -128.546875 64.09375 -126.601562 68.90625 -122.71875 L 63.734375 -113.28125 L 62.015625 -112.953125 C 58.460938 -115.796875 53.84375 -117.21875 48.15625 -117.21875 C 42.851562 -117.21875 38.847656 -115.847656 36.140625 -113.109375 C 33.429688 -110.378906 32.078125 -106.5 32.078125 -101.46875 C 32.078125 -98.351562 32.566406 -94.71875 33.546875 -90.5625 L 62.34375 -90.5625 L 62.34375 -79.578125 L 33.546875 -79.578125 L 33.546875 0 Z M 20.1875 0 "/></g></g></g><g clip-path="url(#0144b8b386)"><path stroke-linecap="butt" transform="matrix(0.470668, 0.470668, -0.470668, 0.470668, 50.8108, -15.361683)" fill="none" stroke-linejoin="miter" d="M 65.839054 47.560218 L 134.840061 47.560218 L 134.840061 107.556403 L 65.839054 107.556403 Z M 65.839054 47.560218 " stroke="#666666" stroke-width="8" stroke-opacity="1" stroke-miterlimit="4"/></g><path stroke-linecap="butt" transform="matrix(0.665625, 0, 0, 0.665625, -5.255053, 16.744184)" fill="none" stroke-linejoin="miter" d="M 52.765812 74.462968 L 52.765812 313.512284 " stroke="#666666" stroke-width="8" stroke-opacity="1" stroke-miterlimit="4"/><path stroke-linecap="butt" transform="matrix(0.665625, 0, 0, 0.665625, -5.255053, 16.744184)" fill="none" stroke-linejoin="miter" d="M 103.505252 123.136681 L 103.505252 207.555702 " stroke="#666666" stroke-width="8" stroke-opacity="1" stroke-miterlimit="4"/><g clip-path="url(#29305bcd87)"><path stroke-linecap="butt" transform="matrix(0.665625, 0, 0, 0.665625, -5.255053, 16.744184)" fill="none" stroke-linejoin="miter" d="M 51.820976 310.759936 L 104.749384 361.012288 " stroke="#666666" stroke-width="8" stroke-opacity="1" stroke-miterlimit="4"/></g><path stroke-linecap="butt" transform="matrix(0.665625, 0, 0, 0.665625, -5.255053, 16.744184)" fill="none" stroke-linejoin="miter" d="M 147.613237 80.642546 L 147.613237 174.040441 " stroke="#666666" stroke-width="8" stroke-opacity="1" stroke-miterlimit="4"/><path stroke-linecap="butt" transform="matrix(0.655513, 0.115585, -0.115585, 0.655513, 17.545962, -4.677599)" fill="none" stroke-linejoin="miter" d="M 143.361259 179.805948 L 258.749058 179.548014 " stroke="#666666" stroke-width="8" stroke-opacity="1" stroke-miterlimit="4"/><path stroke-linecap="butt" transform="matrix(0.655513, 0.115585, -0.115585, 0.655513, 21.74017, -1.839758)" fill="none" stroke-linejoin="miter" d="M 98.845019 217.704083 L 260.830816 217.941835 " stroke="#666666" stroke-width="8" stroke-opacity="1" stroke-miterlimit="4"/><g clip-path="url(#8840e022e7)"><path stroke-linecap="butt" transform="matrix(0.470668, 0.470668, -0.470668, 0.470668, 94.547636, -109.311291)" fill="none" stroke-linejoin="miter" d="M 269.071959 56.302487 L 338.072967 56.302487 L 338.068817 116.302822 L 269.06781 116.302822 Z M 269.071959 56.302487 " stroke="#666666" stroke-width="8" stroke-opacity="1" stroke-miterlimit="4"/></g><path stroke-linecap="butt" transform="matrix(0.665625, 0, 0, 0.665625, -5.255053, 16.744184)" fill="none" stroke-linejoin="miter" d="M 306.774048 132.074475 L 306.774048 372.092101 " stroke="#666666" stroke-width="8" stroke-opacity="1" stroke-miterlimit="4"/><g clip-path="url(#c9f00870dc)"><path stroke-linecap="butt" transform="matrix(0.665607, 0.00482116, -0.00482116, 0.665607, -3.588222, 15.388766)" fill="none" stroke-linejoin="miter" d="M 259.016028 320.511949 L 305.758635 368.907062 " stroke="#666666" stroke-width="8" stroke-opacity="1" stroke-miterlimit="4"/></g><path stroke-linecap="butt" transform="matrix(0.665625, 0, 0, 0.665625, -5.255053, 16.744184)" fill="none" stroke-linejoin="miter" d="M 256.292824 83.24818 L 256.292824 228.694202 " stroke="#666666" stroke-width="8" stroke-opacity="1" stroke-miterlimit="4"/><path stroke-linecap="butt" transform="matrix(0.665625, 0, 0, 0.665625, -5.255053, 16.744184)" fill="none" stroke-linejoin="miter" d="M 260.1778 269.879651 L 260.1778 323.066275 " stroke="#666666" stroke-width="8" stroke-opacity="1" stroke-miterlimit="4"/><g clip-path="url(#5ef50e531d)"><path stroke-linecap="butt" transform="matrix(0.470668, -0.470668, 0.470668, 0.470668, -140.266629, 143.422385)" fill="none" stroke-linejoin="miter" d="M 98.216418 340.001039 L 158.411788 340.001039 " stroke="#666666" stroke-width="8" stroke-opacity="1" stroke-miterlimit="4"/></g><path stroke-linecap="butt" transform="matrix(0.665625, 0, 0, 0.665625, -5.255053, 16.744184)" fill="none" stroke-linejoin="miter" d="M 148.446571 255.020495 L 148.446571 321.499374 " stroke="#666666" stroke-width="8" stroke-opacity="1" stroke-miterlimit="4"/><path stroke-linecap="butt" transform="matrix(0.665625, 0, 0, 0.665625, -5.255053, 16.744184)" fill="none" stroke-linejoin="miter" d="M 350.829216 89.539261 L 350.829216 327.76698 " stroke="#666666" stroke-width="8" stroke-opacity="1" stroke-miterlimit="4"/><g clip-path="url(#4e98732a34)"><path stroke-linecap="butt" transform="matrix(0.470668, -0.470668, 0.470668, 0.470668, -104.248497, 239.704581)" fill="none" stroke-linejoin="miter" d="M 298.814815 347.006194 L 361.134825 347.006194 " stroke="#666666" stroke-width="8" stroke-opacity="1" stroke-miterlimit="4"/></g><path stroke-linecap="butt" transform="matrix(0.65461, 0.120592, -0.120592, 0.65461, 27.974262, -2.480519)" fill="none" stroke-linejoin="miter" d="M 101.361215 258.896022 L 264.763873 258.767708 " stroke="#666666" stroke-width="8" stroke-opacity="1" stroke-miterlimit="4"/><path stroke-linecap="butt" transform="matrix(0.665625, 0, 0, 0.665625, -5.255053, 16.744184)" fill="none" stroke-linejoin="miter" d="M 106.034595 247.397255 L 106.034595 364.22825 " stroke="#666666" stroke-width="8" stroke-opacity="1" stroke-miterlimit="4"/></svg>